# Tiled2Unity generated file. Do not modify by hand.
# Wavefront file for 'New-Classroom-3_mesh_0003.obj'

# Vertices (Count = 384)
v -96 -864 0
v -144 -864 0
v -144 -816 0
v -96 -816 0
v -144 -864 0
v -192 -864 0
v -192 -816 0
v -144 -816 0
v -192 -864 0
v -240 -864 0
v -240 -816 0
v -192 -816 0
v -240 -864 0
v -288 -864 0
v -288 -816 0
v -240 -816 0
v -288 -864 0
v -336 -864 0
v -336 -816 0
v -288 -816 0
v -336 -864 0
v -384 -864 0
v -384 -816 0
v -336 -816 0
v -816 -864 0
v -864 -864 0
v -864 -816 0
v -816 -816 0
v -864 -864 0
v -912 -864 0
v -912 -816 0
v -864 -816 0
v -912 -864 0
v -960 -864 0
v -960 -816 0
v -912 -816 0
v -960 -864 0
v -1008 -864 0
v -1008 -816 0
v -960 -816 0
v -1008 -864 0
v -1056 -864 0
v -1056 -816 0
v -1008 -816 0
v -1056 -864 0
v -1104 -864 0
v -1104 -816 0
v -1056 -816 0
v -1536 -864 0
v -1584 -864 0
v -1584 -816 0
v -1536 -816 0
v -1584 -864 0
v -1632 -864 0
v -1632 -816 0
v -1584 -816 0
v -1632 -864 0
v -1680 -864 0
v -1680 -816 0
v -1632 -816 0
v -1680 -864 0
v -1728 -864 0
v -1728 -816 0
v -1680 -816 0
v -1728 -864 0
v -1776 -864 0
v -1776 -816 0
v -1728 -816 0
v -1776 -864 0
v -1824 -864 0
v -1824 -816 0
v -1776 -816 0
v -2256 -864 0
v -2304 -864 0
v -2304 -816 0
v -2256 -816 0
v -2304 -864 0
v -2352 -864 0
v -2352 -816 0
v -2304 -816 0
v -2352 -864 0
v -2400 -864 0
v -2400 -816 0
v -2352 -816 0
v -2400 -864 0
v -2448 -864 0
v -2448 -816 0
v -2400 -816 0
v -2448 -864 0
v -2496 -864 0
v -2496 -816 0
v -2448 -816 0
v -2496 -864 0
v -2544 -864 0
v -2544 -816 0
v -2496 -816 0
v -96 -1296 0
v -144 -1296 0
v -144 -1248 0
v -96 -1248 0
v -144 -1296 0
v -192 -1296 0
v -192 -1248 0
v -144 -1248 0
v -192 -1296 0
v -240 -1296 0
v -240 -1248 0
v -192 -1248 0
v -240 -1296 0
v -288 -1296 0
v -288 -1248 0
v -240 -1248 0
v -288 -1296 0
v -336 -1296 0
v -336 -1248 0
v -288 -1248 0
v -336 -1296 0
v -384 -1296 0
v -384 -1248 0
v -336 -1248 0
v -816 -1296 0
v -864 -1296 0
v -864 -1248 0
v -816 -1248 0
v -864 -1296 0
v -912 -1296 0
v -912 -1248 0
v -864 -1248 0
v -912 -1296 0
v -960 -1296 0
v -960 -1248 0
v -912 -1248 0
v -960 -1296 0
v -1008 -1296 0
v -1008 -1248 0
v -960 -1248 0
v -1008 -1296 0
v -1056 -1296 0
v -1056 -1248 0
v -1008 -1248 0
v -1056 -1296 0
v -1104 -1296 0
v -1104 -1248 0
v -1056 -1248 0
v -1536 -1296 0
v -1584 -1296 0
v -1584 -1248 0
v -1536 -1248 0
v -1584 -1296 0
v -1632 -1296 0
v -1632 -1248 0
v -1584 -1248 0
v -1632 -1296 0
v -1680 -1296 0
v -1680 -1248 0
v -1632 -1248 0
v -1680 -1296 0
v -1728 -1296 0
v -1728 -1248 0
v -1680 -1248 0
v -1728 -1296 0
v -1776 -1296 0
v -1776 -1248 0
v -1728 -1248 0
v -1776 -1296 0
v -1824 -1296 0
v -1824 -1248 0
v -1776 -1248 0
v -2256 -1296 0
v -2304 -1296 0
v -2304 -1248 0
v -2256 -1248 0
v -2304 -1296 0
v -2352 -1296 0
v -2352 -1248 0
v -2304 -1248 0
v -2352 -1296 0
v -2400 -1296 0
v -2400 -1248 0
v -2352 -1248 0
v -2400 -1296 0
v -2448 -1296 0
v -2448 -1248 0
v -2400 -1248 0
v -2448 -1296 0
v -2496 -1296 0
v -2496 -1248 0
v -2448 -1248 0
v -2496 -1296 0
v -2544 -1296 0
v -2544 -1248 0
v -2496 -1248 0
v -96 -1728 0
v -144 -1728 0
v -144 -1680 0
v -96 -1680 0
v -144 -1728 0
v -192 -1728 0
v -192 -1680 0
v -144 -1680 0
v -192 -1728 0
v -240 -1728 0
v -240 -1680 0
v -192 -1680 0
v -240 -1728 0
v -288 -1728 0
v -288 -1680 0
v -240 -1680 0
v -288 -1728 0
v -336 -1728 0
v -336 -1680 0
v -288 -1680 0
v -336 -1728 0
v -384 -1728 0
v -384 -1680 0
v -336 -1680 0
v -816 -1728 0
v -864 -1728 0
v -864 -1680 0
v -816 -1680 0
v -864 -1728 0
v -912 -1728 0
v -912 -1680 0
v -864 -1680 0
v -912 -1728 0
v -960 -1728 0
v -960 -1680 0
v -912 -1680 0
v -960 -1728 0
v -1008 -1728 0
v -1008 -1680 0
v -960 -1680 0
v -1008 -1728 0
v -1056 -1728 0
v -1056 -1680 0
v -1008 -1680 0
v -1056 -1728 0
v -1104 -1728 0
v -1104 -1680 0
v -1056 -1680 0
v -1536 -1728 0
v -1584 -1728 0
v -1584 -1680 0
v -1536 -1680 0
v -1584 -1728 0
v -1632 -1728 0
v -1632 -1680 0
v -1584 -1680 0
v -1632 -1728 0
v -1680 -1728 0
v -1680 -1680 0
v -1632 -1680 0
v -1680 -1728 0
v -1728 -1728 0
v -1728 -1680 0
v -1680 -1680 0
v -1728 -1728 0
v -1776 -1728 0
v -1776 -1680 0
v -1728 -1680 0
v -1776 -1728 0
v -1824 -1728 0
v -1824 -1680 0
v -1776 -1680 0
v -2256 -1728 0
v -2304 -1728 0
v -2304 -1680 0
v -2256 -1680 0
v -2304 -1728 0
v -2352 -1728 0
v -2352 -1680 0
v -2304 -1680 0
v -2352 -1728 0
v -2400 -1728 0
v -2400 -1680 0
v -2352 -1680 0
v -2400 -1728 0
v -2448 -1728 0
v -2448 -1680 0
v -2400 -1680 0
v -2448 -1728 0
v -2496 -1728 0
v -2496 -1680 0
v -2448 -1680 0
v -2496 -1728 0
v -2544 -1728 0
v -2544 -1680 0
v -2496 -1680 0
v -96 -2160 0
v -144 -2160 0
v -144 -2112 0
v -96 -2112 0
v -144 -2160 0
v -192 -2160 0
v -192 -2112 0
v -144 -2112 0
v -192 -2160 0
v -240 -2160 0
v -240 -2112 0
v -192 -2112 0
v -240 -2160 0
v -288 -2160 0
v -288 -2112 0
v -240 -2112 0
v -288 -2160 0
v -336 -2160 0
v -336 -2112 0
v -288 -2112 0
v -336 -2160 0
v -384 -2160 0
v -384 -2112 0
v -336 -2112 0
v -816 -2160 0
v -864 -2160 0
v -864 -2112 0
v -816 -2112 0
v -864 -2160 0
v -912 -2160 0
v -912 -2112 0
v -864 -2112 0
v -912 -2160 0
v -960 -2160 0
v -960 -2112 0
v -912 -2112 0
v -960 -2160 0
v -1008 -2160 0
v -1008 -2112 0
v -960 -2112 0
v -1008 -2160 0
v -1056 -2160 0
v -1056 -2112 0
v -1008 -2112 0
v -1056 -2160 0
v -1104 -2160 0
v -1104 -2112 0
v -1056 -2112 0
v -1536 -2160 0
v -1584 -2160 0
v -1584 -2112 0
v -1536 -2112 0
v -1584 -2160 0
v -1632 -2160 0
v -1632 -2112 0
v -1584 -2112 0
v -1632 -2160 0
v -1680 -2160 0
v -1680 -2112 0
v -1632 -2112 0
v -1680 -2160 0
v -1728 -2160 0
v -1728 -2112 0
v -1680 -2112 0
v -1728 -2160 0
v -1776 -2160 0
v -1776 -2112 0
v -1728 -2112 0
v -1776 -2160 0
v -1824 -2160 0
v -1824 -2112 0
v -1776 -2112 0
v -2256 -2160 0
v -2304 -2160 0
v -2304 -2112 0
v -2256 -2112 0
v -2304 -2160 0
v -2352 -2160 0
v -2352 -2112 0
v -2304 -2112 0
v -2352 -2160 0
v -2400 -2160 0
v -2400 -2112 0
v -2352 -2112 0
v -2400 -2160 0
v -2448 -2160 0
v -2448 -2112 0
v -2400 -2112 0
v -2448 -2160 0
v -2496 -2160 0
v -2496 -2112 0
v -2448 -2112 0
v -2496 -2160 0
v -2544 -2160 0
v -2544 -2112 0
v -2496 -2112 0

# Texture cooridinates (Count = 16)
vt 0.1072626 0.8647887
vt 0.1608939 0.8647887
vt 0.1608939 1
vt 0.1072626 1
vt 0.2145251 0.8647887
vt 0.2145251 1
vt 0.2681564 0.8647887
vt 0.2681564 1
vt 0.3217877 0.8647887
vt 0.3217877 1
vt 0.375419 0.8647887
vt 0.375419 1
vt 0.750838 0.8647887
vt 0.8044693 0.8647887
vt 0.8044693 1
vt 0.750838 1

# Normal
vn 0 0 -1

# Mesh description
g New-Classroom-3_mesh_0003

# Faces
f 1/1/1 2/2/1 3/3/1 4/4/1
f 5/2/1 6/5/1 7/6/1 8/3/1
f 9/5/1 10/7/1 11/8/1 12/6/1
f 13/7/1 14/9/1 15/10/1 16/8/1
f 17/9/1 18/11/1 19/12/1 20/10/1
f 21/13/1 22/14/1 23/15/1 24/16/1
f 25/1/1 26/2/1 27/3/1 28/4/1
f 29/2/1 30/5/1 31/6/1 32/3/1
f 33/5/1 34/7/1 35/8/1 36/6/1
f 37/7/1 38/9/1 39/10/1 40/8/1
f 41/9/1 42/11/1 43/12/1 44/10/1
f 45/13/1 46/14/1 47/15/1 48/16/1
f 49/1/1 50/2/1 51/3/1 52/4/1
f 53/2/1 54/5/1 55/6/1 56/3/1
f 57/5/1 58/7/1 59/8/1 60/6/1
f 61/7/1 62/9/1 63/10/1 64/8/1
f 65/9/1 66/11/1 67/12/1 68/10/1
f 69/13/1 70/14/1 71/15/1 72/16/1
f 73/1/1 74/2/1 75/3/1 76/4/1
f 77/2/1 78/5/1 79/6/1 80/3/1
f 81/5/1 82/7/1 83/8/1 84/6/1
f 85/7/1 86/9/1 87/10/1 88/8/1
f 89/9/1 90/11/1 91/12/1 92/10/1
f 93/13/1 94/14/1 95/15/1 96/16/1
f 97/1/1 98/2/1 99/3/1 100/4/1
f 101/2/1 102/5/1 103/6/1 104/3/1
f 105/5/1 106/7/1 107/8/1 108/6/1
f 109/7/1 110/9/1 111/10/1 112/8/1
f 113/9/1 114/11/1 115/12/1 116/10/1
f 117/13/1 118/14/1 119/15/1 120/16/1
f 121/1/1 122/2/1 123/3/1 124/4/1
f 125/2/1 126/5/1 127/6/1 128/3/1
f 129/5/1 130/7/1 131/8/1 132/6/1
f 133/7/1 134/9/1 135/10/1 136/8/1
f 137/9/1 138/11/1 139/12/1 140/10/1
f 141/13/1 142/14/1 143/15/1 144/16/1
f 145/1/1 146/2/1 147/3/1 148/4/1
f 149/2/1 150/5/1 151/6/1 152/3/1
f 153/5/1 154/7/1 155/8/1 156/6/1
f 157/7/1 158/9/1 159/10/1 160/8/1
f 161/9/1 162/11/1 163/12/1 164/10/1
f 165/13/1 166/14/1 167/15/1 168/16/1
f 169/1/1 170/2/1 171/3/1 172/4/1
f 173/2/1 174/5/1 175/6/1 176/3/1
f 177/5/1 178/7/1 179/8/1 180/6/1
f 181/7/1 182/9/1 183/10/1 184/8/1
f 185/9/1 186/11/1 187/12/1 188/10/1
f 189/13/1 190/14/1 191/15/1 192/16/1
f 193/1/1 194/2/1 195/3/1 196/4/1
f 197/2/1 198/5/1 199/6/1 200/3/1
f 201/5/1 202/7/1 203/8/1 204/6/1
f 205/7/1 206/9/1 207/10/1 208/8/1
f 209/9/1 210/11/1 211/12/1 212/10/1
f 213/13/1 214/14/1 215/15/1 216/16/1
f 217/1/1 218/2/1 219/3/1 220/4/1
f 221/2/1 222/5/1 223/6/1 224/3/1
f 225/5/1 226/7/1 227/8/1 228/6/1
f 229/7/1 230/9/1 231/10/1 232/8/1
f 233/9/1 234/11/1 235/12/1 236/10/1
f 237/13/1 238/14/1 239/15/1 240/16/1
f 241/1/1 242/2/1 243/3/1 244/4/1
f 245/2/1 246/5/1 247/6/1 248/3/1
f 249/5/1 250/7/1 251/8/1 252/6/1
f 253/7/1 254/9/1 255/10/1 256/8/1
f 257/9/1 258/11/1 259/12/1 260/10/1
f 261/13/1 262/14/1 263/15/1 264/16/1
f 265/1/1 266/2/1 267/3/1 268/4/1
f 269/2/1 270/5/1 271/6/1 272/3/1
f 273/5/1 274/7/1 275/8/1 276/6/1
f 277/7/1 278/9/1 279/10/1 280/8/1
f 281/9/1 282/11/1 283/12/1 284/10/1
f 285/13/1 286/14/1 287/15/1 288/16/1
f 289/1/1 290/2/1 291/3/1 292/4/1
f 293/2/1 294/5/1 295/6/1 296/3/1
f 297/5/1 298/7/1 299/8/1 300/6/1
f 301/7/1 302/9/1 303/10/1 304/8/1
f 305/9/1 306/11/1 307/12/1 308/10/1
f 309/13/1 310/14/1 311/15/1 312/16/1
f 313/1/1 314/2/1 315/3/1 316/4/1
f 317/2/1 318/5/1 319/6/1 320/3/1
f 321/5/1 322/7/1 323/8/1 324/6/1
f 325/7/1 326/9/1 327/10/1 328/8/1
f 329/9/1 330/11/1 331/12/1 332/10/1
f 333/13/1 334/14/1 335/15/1 336/16/1
f 337/1/1 338/2/1 339/3/1 340/4/1
f 341/2/1 342/5/1 343/6/1 344/3/1
f 345/5/1 346/7/1 347/8/1 348/6/1
f 349/7/1 350/9/1 351/10/1 352/8/1
f 353/9/1 354/11/1 355/12/1 356/10/1
f 357/13/1 358/14/1 359/15/1 360/16/1
f 361/1/1 362/2/1 363/3/1 364/4/1
f 365/2/1 366/5/1 367/6/1 368/3/1
f 369/5/1 370/7/1 371/8/1 372/6/1
f 373/7/1 374/9/1 375/10/1 376/8/1
f 377/9/1 378/11/1 379/12/1 380/10/1
f 381/13/1 382/14/1 383/15/1 384/16/1

