# Tiled2Unity generated file. Do not modify by hand.
# Wavefront file for 'New-Classroom2_mesh_0003.obj'

# Vertices (Count = 300)
v -96 -1152 0
v -144 -1152 0
v -144 -1104 0
v -96 -1104 0
v -144 -1152 0
v -192 -1152 0
v -192 -1104 0
v -144 -1104 0
v -192 -1152 0
v -240 -1152 0
v -240 -1104 0
v -192 -1104 0
v -240 -1152 0
v -288 -1152 0
v -288 -1104 0
v -240 -1104 0
v -288 -1152 0
v -336 -1152 0
v -336 -1104 0
v -288 -1104 0
v -336 -1152 0
v -384 -1152 0
v -384 -1104 0
v -336 -1104 0
v -960 -1152 0
v -1008 -1152 0
v -1008 -1104 0
v -960 -1104 0
v -1008 -1152 0
v -1056 -1152 0
v -1056 -1104 0
v -1008 -1104 0
v -1056 -1152 0
v -1104 -1152 0
v -1104 -1104 0
v -1056 -1104 0
v -1104 -1152 0
v -1152 -1152 0
v -1152 -1104 0
v -1104 -1104 0
v -1152 -1152 0
v -1200 -1152 0
v -1200 -1104 0
v -1152 -1104 0
v -1200 -1152 0
v -1248 -1152 0
v -1248 -1104 0
v -1200 -1104 0
v -1248 -1152 0
v -1296 -1152 0
v -1296 -1104 0
v -1248 -1104 0
v -1296 -1152 0
v -1344 -1152 0
v -1344 -1104 0
v -1296 -1104 0
v -1344 -1152 0
v -1392 -1152 0
v -1392 -1104 0
v -1344 -1104 0
v -1392 -1152 0
v -1440 -1152 0
v -1440 -1104 0
v -1392 -1104 0
v -1440 -1152 0
v -1488 -1152 0
v -1488 -1104 0
v -1440 -1104 0
v -1488 -1152 0
v -1536 -1152 0
v -1536 -1104 0
v -1488 -1104 0
v -1536 -1152 0
v -1584 -1152 0
v -1584 -1104 0
v -1536 -1104 0
v -2112 -1152 0
v -2160 -1152 0
v -2160 -1104 0
v -2112 -1104 0
v -2160 -1152 0
v -2208 -1152 0
v -2208 -1104 0
v -2160 -1104 0
v -2208 -1152 0
v -2256 -1152 0
v -2256 -1104 0
v -2208 -1104 0
v -2256 -1152 0
v -2304 -1152 0
v -2304 -1104 0
v -2256 -1104 0
v -2304 -1152 0
v -2352 -1152 0
v -2352 -1104 0
v -2304 -1104 0
v -2352 -1152 0
v -2400 -1152 0
v -2400 -1104 0
v -2352 -1104 0
v -96 -1632 0
v -144 -1632 0
v -144 -1584 0
v -96 -1584 0
v -144 -1632 0
v -192 -1632 0
v -192 -1584 0
v -144 -1584 0
v -192 -1632 0
v -240 -1632 0
v -240 -1584 0
v -192 -1584 0
v -240 -1632 0
v -288 -1632 0
v -288 -1584 0
v -240 -1584 0
v -288 -1632 0
v -336 -1632 0
v -336 -1584 0
v -288 -1584 0
v -336 -1632 0
v -384 -1632 0
v -384 -1584 0
v -336 -1584 0
v -960 -1632 0
v -1008 -1632 0
v -1008 -1584 0
v -960 -1584 0
v -1008 -1632 0
v -1056 -1632 0
v -1056 -1584 0
v -1008 -1584 0
v -1056 -1632 0
v -1104 -1632 0
v -1104 -1584 0
v -1056 -1584 0
v -1104 -1632 0
v -1152 -1632 0
v -1152 -1584 0
v -1104 -1584 0
v -1152 -1632 0
v -1200 -1632 0
v -1200 -1584 0
v -1152 -1584 0
v -1200 -1632 0
v -1248 -1632 0
v -1248 -1584 0
v -1200 -1584 0
v -1248 -1632 0
v -1296 -1632 0
v -1296 -1584 0
v -1248 -1584 0
v -1296 -1632 0
v -1344 -1632 0
v -1344 -1584 0
v -1296 -1584 0
v -1344 -1632 0
v -1392 -1632 0
v -1392 -1584 0
v -1344 -1584 0
v -1392 -1632 0
v -1440 -1632 0
v -1440 -1584 0
v -1392 -1584 0
v -1440 -1632 0
v -1488 -1632 0
v -1488 -1584 0
v -1440 -1584 0
v -1488 -1632 0
v -1536 -1632 0
v -1536 -1584 0
v -1488 -1584 0
v -1536 -1632 0
v -1584 -1632 0
v -1584 -1584 0
v -1536 -1584 0
v -2112 -1632 0
v -2160 -1632 0
v -2160 -1584 0
v -2112 -1584 0
v -2160 -1632 0
v -2208 -1632 0
v -2208 -1584 0
v -2160 -1584 0
v -2208 -1632 0
v -2256 -1632 0
v -2256 -1584 0
v -2208 -1584 0
v -2256 -1632 0
v -2304 -1632 0
v -2304 -1584 0
v -2256 -1584 0
v -2304 -1632 0
v -2352 -1632 0
v -2352 -1584 0
v -2304 -1584 0
v -2352 -1632 0
v -2400 -1632 0
v -2400 -1584 0
v -2352 -1584 0
v -2112 -2064 0
v -2160 -2064 0
v -2160 -2016 0
v -2112 -2016 0
v -2160 -2064 0
v -2208 -2064 0
v -2208 -2016 0
v -2160 -2016 0
v -2208 -2064 0
v -2256 -2064 0
v -2256 -2016 0
v -2208 -2016 0
v -2256 -2064 0
v -2304 -2064 0
v -2304 -2016 0
v -2256 -2016 0
v -2304 -2064 0
v -2352 -2064 0
v -2352 -2016 0
v -2304 -2016 0
v -2352 -2064 0
v -2400 -2064 0
v -2400 -2016 0
v -2352 -2016 0
v -96 -2112 0
v -144 -2112 0
v -144 -2064 0
v -96 -2064 0
v -144 -2112 0
v -192 -2112 0
v -192 -2064 0
v -144 -2064 0
v -192 -2112 0
v -240 -2112 0
v -240 -2064 0
v -192 -2064 0
v -240 -2112 0
v -288 -2112 0
v -288 -2064 0
v -240 -2064 0
v -288 -2112 0
v -336 -2112 0
v -336 -2064 0
v -288 -2064 0
v -336 -2112 0
v -384 -2112 0
v -384 -2064 0
v -336 -2064 0
v -960 -2112 0
v -1008 -2112 0
v -1008 -2064 0
v -960 -2064 0
v -1008 -2112 0
v -1056 -2112 0
v -1056 -2064 0
v -1008 -2064 0
v -1056 -2112 0
v -1104 -2112 0
v -1104 -2064 0
v -1056 -2064 0
v -1104 -2112 0
v -1152 -2112 0
v -1152 -2064 0
v -1104 -2064 0
v -1152 -2112 0
v -1200 -2112 0
v -1200 -2064 0
v -1152 -2064 0
v -1200 -2112 0
v -1248 -2112 0
v -1248 -2064 0
v -1200 -2064 0
v -1248 -2112 0
v -1296 -2112 0
v -1296 -2064 0
v -1248 -2064 0
v -1296 -2112 0
v -1344 -2112 0
v -1344 -2064 0
v -1296 -2064 0
v -1344 -2112 0
v -1392 -2112 0
v -1392 -2064 0
v -1344 -2064 0
v -1392 -2112 0
v -1440 -2112 0
v -1440 -2064 0
v -1392 -2064 0
v -1440 -2112 0
v -1488 -2112 0
v -1488 -2064 0
v -1440 -2064 0
v -1488 -2112 0
v -1536 -2112 0
v -1536 -2064 0
v -1488 -2064 0
v -1536 -2112 0
v -1584 -2112 0
v -1584 -2064 0
v -1536 -2064 0

# Texture cooridinates (Count = 28)
vt 0.1072626 0.8647887
vt 0.1608939 0.8647887
vt 0.1608939 1
vt 0.1072626 1
vt 0.2145251 0.8647887
vt 0.2145251 1
vt 0.2681564 0.8647887
vt 0.2681564 1
vt 0.3217877 0.8647887
vt 0.3217877 1
vt 0.375419 0.8647887
vt 0.375419 1
vt 0.750838 0.8647887
vt 0.8044693 0.8647887
vt 0.8044693 1
vt 0.750838 1
vt 0.4290503 0.8647887
vt 0.4290503 1
vt 0.4826816 0.8647887
vt 0.4826816 1
vt 0.5363129 0.8647887
vt 0.5363129 1
vt 0.5899441 0.8647887
vt 0.5899441 1
vt 0.6435754 0.8647887
vt 0.6435754 1
vt 0.6972067 0.8647887
vt 0.6972067 1

# Normal
vn 0 0 -1

# Mesh description
g New-Classroom2_mesh_0003

# Faces
f 1/1/1 2/2/1 3/3/1 4/4/1
f 5/2/1 6/5/1 7/6/1 8/3/1
f 9/5/1 10/7/1 11/8/1 12/6/1
f 13/7/1 14/9/1 15/10/1 16/8/1
f 17/9/1 18/11/1 19/12/1 20/10/1
f 21/13/1 22/14/1 23/15/1 24/16/1
f 25/1/1 26/2/1 27/3/1 28/4/1
f 29/2/1 30/5/1 31/6/1 32/3/1
f 33/5/1 34/7/1 35/8/1 36/6/1
f 37/7/1 38/9/1 39/10/1 40/8/1
f 41/9/1 42/11/1 43/12/1 44/10/1
f 45/11/1 46/17/1 47/18/1 48/12/1
f 49/17/1 50/19/1 51/20/1 52/18/1
f 53/19/1 54/21/1 55/22/1 56/20/1
f 57/21/1 58/23/1 59/24/1 60/22/1
f 61/23/1 62/25/1 63/26/1 64/24/1
f 65/25/1 66/27/1 67/28/1 68/26/1
f 69/27/1 70/13/1 71/16/1 72/28/1
f 73/13/1 74/14/1 75/15/1 76/16/1
f 77/1/1 78/2/1 79/3/1 80/4/1
f 81/2/1 82/5/1 83/6/1 84/3/1
f 85/5/1 86/7/1 87/8/1 88/6/1
f 89/7/1 90/9/1 91/10/1 92/8/1
f 93/9/1 94/11/1 95/12/1 96/10/1
f 97/13/1 98/14/1 99/15/1 100/16/1
f 101/1/1 102/2/1 103/3/1 104/4/1
f 105/2/1 106/5/1 107/6/1 108/3/1
f 109/5/1 110/7/1 111/8/1 112/6/1
f 113/7/1 114/9/1 115/10/1 116/8/1
f 117/9/1 118/11/1 119/12/1 120/10/1
f 121/13/1 122/14/1 123/15/1 124/16/1
f 125/1/1 126/2/1 127/3/1 128/4/1
f 129/2/1 130/5/1 131/6/1 132/3/1
f 133/5/1 134/7/1 135/8/1 136/6/1
f 137/7/1 138/9/1 139/10/1 140/8/1
f 141/9/1 142/11/1 143/12/1 144/10/1
f 145/11/1 146/17/1 147/18/1 148/12/1
f 149/17/1 150/19/1 151/20/1 152/18/1
f 153/19/1 154/21/1 155/22/1 156/20/1
f 157/21/1 158/23/1 159/24/1 160/22/1
f 161/23/1 162/25/1 163/26/1 164/24/1
f 165/25/1 166/27/1 167/28/1 168/26/1
f 169/27/1 170/13/1 171/16/1 172/28/1
f 173/13/1 174/14/1 175/15/1 176/16/1
f 177/1/1 178/2/1 179/3/1 180/4/1
f 181/2/1 182/5/1 183/6/1 184/3/1
f 185/5/1 186/7/1 187/8/1 188/6/1
f 189/7/1 190/9/1 191/10/1 192/8/1
f 193/9/1 194/11/1 195/12/1 196/10/1
f 197/13/1 198/14/1 199/15/1 200/16/1
f 201/1/1 202/2/1 203/3/1 204/4/1
f 205/2/1 206/5/1 207/6/1 208/3/1
f 209/5/1 210/7/1 211/8/1 212/6/1
f 213/7/1 214/9/1 215/10/1 216/8/1
f 217/9/1 218/11/1 219/12/1 220/10/1
f 221/13/1 222/14/1 223/15/1 224/16/1
f 225/1/1 226/2/1 227/3/1 228/4/1
f 229/2/1 230/5/1 231/6/1 232/3/1
f 233/5/1 234/7/1 235/8/1 236/6/1
f 237/7/1 238/9/1 239/10/1 240/8/1
f 241/9/1 242/11/1 243/12/1 244/10/1
f 245/13/1 246/14/1 247/15/1 248/16/1
f 249/1/1 250/2/1 251/3/1 252/4/1
f 253/2/1 254/5/1 255/6/1 256/3/1
f 257/5/1 258/7/1 259/8/1 260/6/1
f 261/7/1 262/9/1 263/10/1 264/8/1
f 265/9/1 266/11/1 267/12/1 268/10/1
f 269/11/1 270/17/1 271/18/1 272/12/1
f 273/17/1 274/19/1 275/20/1 276/18/1
f 277/19/1 278/21/1 279/22/1 280/20/1
f 281/21/1 282/23/1 283/24/1 284/22/1
f 285/23/1 286/25/1 287/26/1 288/24/1
f 289/25/1 290/27/1 291/28/1 292/26/1
f 293/27/1 294/13/1 295/16/1 296/28/1
f 297/13/1 298/14/1 299/15/1 300/16/1

