# Tiled2Unity generated file. Do not modify by hand.
# Wavefront file for 'classroom_mesh_0003.obj'

# Vertices (Count = 20)
v -576 -48 0
v -624 -48 0
v -624 0 0
v -576 0 0
v -624 -48 0
v -672 -48 0
v -672 0 0
v -624 0 0
v -672 -48 0
v -720 -48 0
v -720 0 0
v -672 0 0
v -720 -48 0
v -768 -48 0
v -768 0 0
v -720 0 0
v -768 -48 0
v -816 -48 0
v -816 0 0
v -768 0 0

# Texture cooridinates (Count = 12)
vt 0.4690554 0.02439022
vt 0.5472313 0.02439022
vt 0.5472313 0.2195122
vt 0.4690554 0.2195122
vt 0.6254072 0.02439022
vt 0.6254072 0.2195122
vt 0.7035831 0.02439022
vt 0.7035831 0.2195122
vt 0.781759 0.02439022
vt 0.781759 0.2195122
vt 0.8599349 0.02439022
vt 0.8599349 0.2195122

# Normal
vn 0 0 -1

# Mesh description
g classroom_mesh_0003

# Faces
f 1/1/1 2/2/1 3/3/1 4/4/1
f 5/2/1 6/5/1 7/6/1 8/3/1
f 9/5/1 10/7/1 11/8/1 12/6/1
f 13/7/1 14/9/1 15/10/1 16/8/1
f 17/9/1 18/11/1 19/12/1 20/10/1

